<?xml version="1.0" encoding="UTF-8"?>
<svg xmlns="http://www.w3.org/2000/svg" xmlns:xlink="http://www.w3.org/1999/xlink" width="75px" height="64px" viewBox="0 0 74 64" version="1.1">
<g id="surface1">
<path style=" stroke:none;fill-rule:nonzero;fill:rgb(7.450981%,49.411765%,23.137255%);fill-opacity:1;" d="M 36.890625 31.15625 L 37.039062 31.386719 L 36.960938 32.109375 L 36.488281 32.707031 L 36.070312 33.019531 L 35.128906 33.6875 L 34.511719 34.027344 L 33.164062 34.695312 L 32.386719 35.007812 L 29.9375 36.152344 L 28.589844 36.984375 L 28.066406 37.433594 L 27.097656 38.332031 L 26.773438 38.808594 L 26.210938 39.789062 L 26.089844 40.292969 L 24.984375 42.6875 L 23.949219 43.914062 L 23.425781 44.121094 L 22.078125 45.453125 L 21.527344 46.855469 L 21.527344 47.617188 L 21.742188 49.089844 L 22.105469 49.578125 L 22.980469 50.382812 L 23.546875 50.382812 L 24.984375 49.578125 L 25.46875 48.570312 L 25.457031 48.640625 L 24.808594 50.476562 L 24.460938 51.308594 L 23.613281 52.398438 L 23.183594 52.835938 L 22.28125 53.011719 L 21.851562 52.96875 L 21.054688 52.085938 L 20.894531 51.800781 L 20.746094 50.941406 L 20.707031 50.476562 L 20.789062 49.292969 L 20.921875 48.066406 L 21.742188 45.074219 L 22.226562 43.5625 L 23.53125 40.632812 L 25.792969 37.203125 L 26.84375 36.058594 L 29.382812 34.152344 L 30.714844 33.253906 L 33.730469 31.878906 L 35.292969 31.25 L 37.082031 30.816406 M 65.214844 32.328125 L 63.828125 36.167969 L 63.046875 38.019531 L 61.03125 41.257812 L 59.953125 42.8125 L 57.410156 45.359375 L 56.078125 46.542969 L 53.144531 48.285156 L 51.625 49.046875 L 48.410156 49.878906 L 46.78125 50.164062 L 46.539062 50.152344 L 49.109375 49.445312 L 51.34375 48 L 52.21875 46.980469 L 54.828125 44.570312 L 55.660156 44.011719 L 56.023438 43.847656 L 56.710938 43.574219 L 56.964844 43.574219 L 58.824219 42.960938 L 60.074219 41.996094 L 60.667969 41.273438 L 61.863281 39.695312 L 62.414062 38.726562 L 63.480469 36.699219 L 63.949219 35.554688 L 65.363281 31.523438 M 37.566406 47.988281 L 38.628906 48.503906 L 38.304688 48.410156 L 36.988281 47.78125 L 36.503906 47.402344 M 26.613281 43.058594 L 26.195312 44.648438 L 25.632812 47.496094 L 25.5625 47.960938 L 25.5625 47.5625 L 25.953125 44.921875 L 26.519531 43.113281 L 26.855469 42.429688 M 31.578125 41.84375 L 31.980469 42.742188 L 34.027344 45.414062 L 33.890625 45.304688 L 32.964844 44.253906 L 31.996094 42.796875 L 31.683594 42.105469 L 31.269531 41.394531 M 30.621094 40.441406 L 30.664062 40.496094 L 30.515625 40.359375 M 29.734375 39.734375 L 29.238281 39.613281 L 28.953125 39.597656 L 28.886719 39.640625 L 29.035156 39.488281 L 29.425781 39.488281 M 49.78125 28.839844 L 49.78125 29.179688 L 49.242188 29.480469 L 48.394531 29.65625 L 47.777344 29.726562 L 46.429688 29.863281 L 45.625 29.890625 L 45.476562 29.902344 L 46.230469 29.847656 L 46.941406 29.765625 L 48.101562 29.535156 L 48.625 29.398438 L 49.335938 29.058594 L 49.660156 28.636719 M 65.375 15.332031 L 65.484375 15.441406 L 65.683594 16.21875 L 65.777344 16.695312 L 65.941406 18.082031 L 66.007812 19.527344 L 65.859375 18.777344 L 65.46875 17.839844 L 65.1875 17.59375 L 64.515625 17.226562 L 64.015625 17.210938 L 62.898438 17.28125 L 62.105469 17.429688 L 58.796875 18.449219 L 56.601562 19.429688 L 55.875 19.949219 L 52.726562 21.242188 L 50.078125 21.789062 L 48.894531 21.789062 L 45.585938 22.183594 L 44.710938 22.453125 L 44.386719 22.617188 L 43.835938 22.957031 L 43.726562 23.148438 L 43.59375 24.117188 L 43.996094 24.511719 L 44.414062 24.511719 L 45.921875 25.042969 L 47.117188 25.832031 L 47.695312 26.335938 L 48.785156 27.371094 L 49.121094 27.820312 L 48.851562 27.695312 L 47.5625 27.480469 L 46.835938 27.398438 L 44.859375 27.34375 L 41.128906 27.4375 L 39.945312 27.492188 L 37.714844 27.546875 L 36.648438 27.5625 L 34.808594 27.519531 L 33.945312 27.492188 L 32.695312 27.371094 L 31.726562 27.113281 L 31.617188 27.003906 L 31.683594 26.566406 L 31.753906 26.320312 L 32.128906 25.667969 L 34.1875 23.257812 L 34.792969 22.6875 L 36.152344 21.773438 L 36.867188 21.351562 L 38.574219 20.710938 L 39.503906 20.425781 L 41.75 20.003906 L 45.960938 19.527344 L 48.300781 19.351562 L 53.46875 18.4375 L 54.707031 18.179688 L 56.914062 17.605469 L 59.550781 16.707031 L 60.9375 16.121094 L 63.34375 15.414062 L 63.882812 15.292969 L 64.675781 15.195312 Z M 65.375 15.332031 "/>
<path style=" stroke:none;fill-rule:nonzero;fill:rgb(8.235294%,50.196081%,23.921569%);fill-opacity:1;" d="M 64.515625 17.226562 L 65.1875 17.59375 L 65.46875 17.839844 L 65.859375 18.777344 L 66.304688 20.984375 L 66.464844 22.074219 L 66.480469 24.457031 L 66.425781 25.667969 L 66.074219 28.199219 L 65.644531 30.71875 L 63.949219 35.554688 L 63.480469 36.699219 L 62.414062 38.726562 L 61.863281 39.695312 L 60.667969 41.273438 L 60.074219 41.996094 L 58.824219 42.960938 L 56.964844 43.574219 L 56.710938 43.574219 L 56.023438 43.847656 L 55.660156 44.011719 L 54.828125 44.570312 L 52.21875 46.980469 L 51.34375 48 L 49.109375 49.445312 L 45.707031 50.382812 L 44.425781 50.382812 L 41.640625 49.730469 L 40.242188 49.308594 L 37.566406 47.988281 L 36.273438 47.277344 L 34.429688 45.78125 L 34.726562 45.195312 L 34.699219 44.5 L 34.523438 42.867188 L 34.226562 41.695312 L 33.664062 40.101562 L 33.179688 39.285156 L 32.871094 38.984375 L 31.457031 38.140625 L 30.460938 38.15625 L 28.804688 38.441406 L 28.632812 38.875 L 29.0625 39.175781 L 29.359375 39.488281 L 29.035156 39.488281 L 28.160156 40.292969 L 27.730469 40.796875 L 26.910156 42.292969 L 26.519531 43.113281 L 25.953125 44.921875 L 25.5625 47.5625 L 25.5625 48.367188 L 24.984375 49.578125 L 23.546875 50.382812 L 22.980469 50.382812 L 22.105469 49.578125 L 21.742188 49.089844 L 21.527344 47.617188 L 21.527344 46.855469 L 22.078125 45.453125 L 23.425781 44.121094 L 23.949219 43.914062 L 24.984375 42.6875 L 26.089844 40.292969 L 26.210938 39.789062 L 26.773438 38.808594 L 27.097656 38.332031 L 28.066406 37.433594 L 28.589844 36.984375 L 29.9375 36.152344 L 32.386719 35.007812 L 33.164062 34.695312 L 34.511719 34.027344 L 35.128906 33.6875 L 36.070312 33.019531 L 36.488281 32.707031 L 36.960938 32.109375 L 37.039062 31.386719 L 36.890625 31.15625 L 37.109375 30.773438 L 37.296875 30.597656 L 38.144531 30.324219 L 38.65625 30.203125 L 40.109375 30.054688 L 42.972656 29.957031 L 43.914062 29.957031 L 45.625 29.890625 L 46.429688 29.863281 L 47.777344 29.726562 L 48.394531 29.65625 L 49.242188 29.480469 L 49.78125 29.179688 L 49.78125 28.839844 L 49.164062 27.875 L 48.785156 27.371094 L 47.695312 26.335938 L 47.117188 25.832031 L 45.921875 25.042969 L 44.414062 24.511719 L 43.996094 24.511719 L 43.59375 24.117188 L 43.726562 23.148438 L 43.835938 22.957031 L 44.386719 22.617188 L 44.710938 22.453125 L 45.585938 22.183594 L 48.894531 21.789062 L 50.078125 21.789062 L 52.726562 21.242188 L 55.875 19.949219 L 56.601562 19.429688 L 58.796875 18.449219 L 62.105469 17.429688 L 62.898438 17.28125 L 64.015625 17.210938 M 44.398438 29.957031 L 42.570312 30.066406 L 41.734375 30.242188 L 41.480469 30.40625 L 41.105469 30.773438 L 41.0625 31.03125 L 41.078125 31.617188 L 41.226562 32 L 41.898438 33.074219 L 42.476562 33.445312 L 43.742188 34.042969 L 44.398438 34.042969 L 46.324219 33.445312 L 47.359375 32.558594 L 47.574219 32 L 47.738281 31.03125 L 47.5625 30.570312 L 47.320312 30.40625 L 46.714844 30.132812 L 46.230469 30.066406 L 45.140625 29.957031 Z M 44.398438 29.957031 "/>
<path style=" stroke:none;fill-rule:nonzero;fill:rgb(9.019608%,50.588238%,24.313726%);fill-opacity:1;" d="M 32.195312 43.355469 L 31.738281 42.472656 L 30.59375 40.808594 L 29.0625 39.175781 L 28.632812 38.875 L 28.804688 38.441406 L 30.460938 38.15625 L 31.457031 38.140625 L 32.871094 38.984375 L 33.179688 39.285156 L 33.664062 40.101562 L 34.226562 41.695312 L 34.523438 42.867188 L 34.699219 44.5 L 34.726562 45.195312 L 34.429688 45.78125 L 34.226562 45.945312 L 33.554688 45.441406 L 33.179688 45.03125 M 41.226562 32 L 41.078125 31.617188 L 41.0625 31.03125 L 41.105469 30.773438 L 41.480469 30.40625 L 41.734375 30.242188 L 42.570312 30.066406 L 44.398438 29.957031 L 45.140625 29.957031 L 46.230469 30.066406 L 46.714844 30.132812 L 47.320312 30.40625 L 47.5625 30.570312 L 47.738281 31.03125 L 47.574219 32 L 47.359375 32.558594 L 46.324219 33.445312 L 44.398438 34.042969 L 43.742188 34.042969 L 42.476562 33.445312 L 41.898438 33.074219 Z M 41.226562 32 "/>
</g>
</svg>
