<svg xmlns="http://www.w3.org/2000/svg" width="223" height="68" viewBox="0 0 223 68">
<g>
<path d="M 39.64,26.35 L 39.43,26.44 L 39.65,26.34 M 40.00,25.91 L 39.69,26.29 L 40.00,25.87 M 27.85,22.78 L 27.69,23.07 L 27.46,23.60 L 27.47,23.83 L 27.57,24.26 L 27.75,24.43 L 28.19,24.74 L 28.55,24.86 L 29.33,25.06 L 29.85,25.13 L 30.98,25.22 L 31.67,25.23 L 33.15,25.21 L 34.01,25.16 L 34.95,25.13 L 33.00,25.23 L 32.04,25.30 L 30.28,25.37 L 29.45,25.39 L 28.06,25.36 L 27.42,25.33 L 26.55,25.22 L 26.00,24.96 L 26.00,24.85 L 26.24,24.45 L 26.40,24.22 L 26.90,23.65 L 28.07,22.54 M 31.25,20.05 L 31.44,19.94 L 31.60,19.88 M 43.95,18.43 L 45.48,18.09 L 47.32,17.51 L 45.49,18.09 L 43.96,18.43 L 43.12,18.56 L 39.59,19.00 L 39.55,19.00 L 43.10,18.56 M 35.18,19.11 L 33.62,19.29 L 32.97,19.45 L 31.98,19.74 L 32.67,19.49 L 33.33,19.30 L 34.91,19.10 L 37.95,19.00 L 38.01,19.00 Z" fill="rgba(12,121,52,1)"/>
<path d="M 104.90,43.91 L 104.50,45.05 L 103.31,46.71 L 100.85,48.57 L 100.09,48.97 L 98.18,49.51 L 97.20,49.74 L 95.13,49.93 L 94.11,49.98 L 92.26,49.80 L 91.40,49.67 L 90.53,49.28 L 91.02,49.31 L 91.34,49.08 L 91.92,48.50 L 92.09,48.09 L 92.33,47.23 L 92.27,46.82 L 92.02,46.05 L 91.86,45.94 L 93.76,45.85 L 94.63,45.91 L 95.93,45.90 L 96.53,45.87 L 97.43,45.62 L 97.84,45.45 L 98.40,44.98 L 96.83,47.15 L 100.16,46.83 L 101.74,46.55 L 102.64,46.25 L 103.02,46.03 L 103.74,45.54 L 104.03,45.20 L 104.57,44.47 L 104.79,44.00 L 105.17,43.04 M 190.03,48.93 L 190.20,48.58 L 190.15,48.71 L 189.97,49.05 L 189.47,49.46 L 188.43,49.80 L 189.50,49.42 M 89.04,47.55 L 89.21,48.30 L 89.29,48.41 L 89.14,48.24 L 88.95,47.83 L 88.83,47.42 L 88.99,47.19 M 190.46,47.92 L 190.41,48.05 L 190.46,47.91 M 19.22,42.71 L 19.34,43.00 L 19.64,43.31 L 19.27,42.94 M 105.40,42.04 L 105.26,42.72 L 105.20,42.93 L 105.34,42.36 L 105.44,41.86 M 100.69,40.67 L 100.73,41.09 L 100.64,41.39 L 100.38,42.04 L 100.24,42.29 L 100.49,41.67 L 100.65,41.13 L 100.62,40.60 M 65.63,36.57 L 65.56,37.14 L 65.53,38.15 L 65.67,38.52 L 66.05,39.19 L 66.38,39.52 L 67.93,40.72 L 68.76,40.96 L 69.09,40.78 L 69.50,40.41 L 68.92,41.05 L 68.45,41.46 L 67.36,41.92 L 66.81,42.08 L 65.77,41.99 L 65.28,41.86 L 64.57,41.12 L 64.54,41.06 L 64.55,40.72 L 64.57,40.51 L 64.69,39.90 L 64.83,39.23 L 65.40,37.23 L 65.72,36.15 L 65.93,35.49 M 160.64,40.24 L 161.75,40.39 L 162.38,40.27 L 164.64,40.25 L 166.16,40.58 L 166.66,40.87 L 167.62,41.44 L 167.93,41.60 L 168.46,41.86 L 168.67,41.89 L 168.96,41.89 L 168.93,41.90 L 168.34,42.01 L 167.01,42.07 L 165.66,42.08 L 162.86,41.46 L 162.19,41.25 L 160.98,40.66 L 160.40,40.35 L 160.13,40.12 M 179.70,42.00 L 179.61,42.00 L 179.07,41.80 M 110.31,37.38 L 110.63,38.47 L 110.86,38.94 L 111.35,39.83 L 111.65,40.17 L 112.84,41.38 L 113.27,41.64 L 113.88,41.87 L 113.86,41.88 L 112.46,42.00 L 111.82,42.00 L 111.00,41.87 L 110.64,41.74 L 110.27,40.97 L 110.20,40.71 L 110.12,39.98 L 110.09,39.58 L 110.08,38.52 L 110.08,37.94 L 110.12,36.59 M 149.80,41.41 L 150.42,41.57 L 152.45,41.90 L 152.47,41.90 L 152.25,41.98 L 151.37,41.98 L 150.06,41.66 L 149.48,41.44 L 149.25,41.20 M 96.31,25.42 L 97.19,25.60 L 97.59,25.64 L 97.52,25.74 L 97.30,26.36 L 97.36,26.83 L 97.57,27.84 L 97.82,28.34 L 98.40,29.29 L 98.82,29.60 L 99.50,30.35 L 99.78,31.01 L 99.85,31.46 L 99.94,32.42 L 99.91,33.05 L 99.80,34.42 L 99.69,35.28 L 99.47,37.36 L 99.45,38.45 L 99.50,38.86 L 99.64,39.59 L 99.77,39.82 L 99.94,40.05 L 98.78,40.82 L 98.34,41.26 L 97.04,41.75 L 96.34,41.93 L 94.78,41.94 L 94.00,41.89 L 92.52,41.43 L 91.02,40.41 L 91.43,40.44 L 92.43,40.31 L 93.11,39.94 L 94.37,39.21 L 94.82,38.80 L 94.87,38.53 L 94.85,37.94 L 94.68,37.48 L 94.35,36.69 L 95.29,37.44 L 97.32,37.81 L 97.77,37.75 L 98.43,37.50 L 98.72,37.34 L 99.09,36.81 L 99.25,36.50 L 99.42,35.55 L 99.48,35.01 L 99.50,33.50 L 99.50,32.65 L 99.42,31.44 L 99.35,30.89 L 99.09,30.17 L 98.93,29.86 L 98.41,29.49 L 97.26,29.18 L 96.86,29.13 L 96.18,29.18 L 95.85,29.23 L 95.28,29.51 L 95.01,29.68 L 94.54,30.21 L 93.91,31.31 L 93.53,32.14 L 93.38,33.70 L 93.30,33.39 L 93.43,32.05 L 93.76,31.47 L 94.32,29.69 L 94.35,28.46 L 94.22,27.91 L 93.86,26.89 L 93.56,26.55 L 92.88,26.00 L 92.44,26.00 L 91.75,26.27 L 92.01,26.07 L 92.43,25.76 L 93.26,25.41 L 93.68,25.27 L 94.62,25.22 M 181.15,41.66 L 180.75,41.79 L 181.17,41.64 M 170.52,41.40 L 170.07,41.62 L 169.40,41.78 L 169.94,41.57 L 170.42,41.39 L 171.17,41.01 M 47.69,36.24 L 44.87,39.09 L 44.11,39.63 L 42.47,40.46 L 41.64,40.83 L 39.90,41.32 L 39.03,41.52 L 37.27,41.69 L 36.39,41.73 L 34.68,41.59 L 33.83,41.48 L 32.24,41.03 L 31.46,40.77 L 30.05,40.03 L 29.38,39.62 L 28.92,39.20 L 28.99,39.25 L 29.44,39.48 L 29.64,39.47 L 30.02,39.38 L 30.19,39.21 L 30.88,38.87 L 31.59,38.70 L 32.03,38.66 L 33.98,38.59 L 35.05,38.73 L 37.04,38.86 L 38.26,38.78 L 38.86,38.65 L 40.03,38.34 L 40.64,38.08 L 41.87,37.51 L 42.53,37.11 L 45.35,35.76 L 46.12,35.52 L 46.41,35.48 L 46.91,35.45 L 47.03,35.52 L 48.03,35.48 L 48.40,35.17 M 198.75,25.26 L 199.29,25.42 L 199.56,25.58 L 198.82,25.52 L 198.41,25.67 L 197.76,26.20 L 197.50,26.81 L 197.44,27.28 L 197.37,28.35 L 197.41,29.11 L 197.53,30.76 L 197.66,31.86 L 198.44,36.06 L 198.76,37.13 L 198.92,37.50 L 199.25,38.13 L 199.40,38.23 L 200.27,38.76 L 200.62,38.85 L 201.27,38.93 L 201.54,38.78 L 202.07,38.37 L 202.32,37.95 L 202.81,36.99 L 203.00,36.50 L 202.71,37.39 L 201.67,39.03 L 201.10,39.78 L 199.65,40.83 L 198.88,41.28 L 197.11,41.69 L 194.18,41.54 L 193.43,41.37 L 192.43,41.23 L 191.99,41.21 L 191.48,41.52 L 191.37,41.64 L 191.55,39.18 L 191.55,37.64 L 191.52,36.98 L 191.43,35.74 L 191.36,35.30 L 191.36,35.27 L 191.46,35.53 L 191.95,36.28 L 192.22,36.63 L 192.89,37.19 L 193.25,37.43 L 194.09,37.73 L 195.49,37.79 L 195.90,37.73 L 196.49,37.48 L 196.76,37.32 L 197.11,36.78 L 197.26,36.46 L 197.42,35.51 L 197.48,34.98 L 197.50,33.51 L 197.50,32.44 L 197.11,30.82 L 196.86,30.11 L 196.04,29.27 L 195.59,28.96 L 194.44,28.98 L 192.45,30.04 L 192.20,30.25 L 192.52,29.68 L 192.90,29.14 L 194.29,27.03 L 194.83,26.02 L 194.91,25.72 L 194.92,25.26 L 194.77,25.25 L 194.91,25.21 L 197.01,25.00 L 197.62,25.00 M 115.00,38.32 L 114.94,39.84 L 114.88,40.50 L 114.62,41.28 L 114.45,41.60 L 114.34,41.65 L 114.54,41.41 L 114.63,41.17 L 114.79,40.62 L 114.84,40.25 L 114.94,39.44 L 114.96,38.93 L 115.00,37.85 M 181.99,33.02 L 181.98,34.20 L 181.95,36.12 L 181.93,37.01 L 181.86,38.41 L 181.83,39.05 L 181.71,40.02 L 181.65,40.45 L 181.48,41.06 L 181.39,41.33 L 181.21,41.58 L 181.40,41.29 L 181.49,41.01 L 181.65,40.39 L 181.72,39.95 L 181.82,38.97 L 181.86,38.33 L 181.93,36.93 L 181.95,36.04 L 181.98,34.15 L 181.99,32.98 L 182.00,30.54 M 106.00,35.06 L 105.94,37.09 L 105.90,38.06 L 105.75,39.78 L 105.66,40.60 L 105.64,40.72 L 105.69,40.23 L 105.85,38.53 L 105.89,37.53 L 105.96,35.43 L 105.96,34.22 L 106.00,25.94 M 176.72,39.78 L 176.96,40.45 L 176.93,40.42 L 176.77,39.98 L 176.69,39.73 L 176.64,39.50 M 90.84,40.29 L 90.79,40.25 L 90.73,40.18 M 69.77,40.11 L 69.74,40.14 L 69.91,39.74 M 72.20,33.00 L 78.11,33.00 L 78.19,34.13 L 78.11,34.75 L 78.22,36.34 L 78.56,37.00 L 78.82,37.00 L 79.68,37.73 L 79.76,37.88 L 79.74,37.85 L 79.14,37.43 L 78.78,37.25 L 77.71,37.08 L 75.37,37.00 L 74.42,37.00 L 73.04,37.09 L 72.43,37.16 L 71.57,37.45 L 71.18,37.62 L 70.65,38.20 L 70.00,39.50 L 69.98,39.56 L 70.40,38.26 L 70.59,37.25 L 71.29,34.31 L 71.55,33.49 L 71.68,33.18 L 71.93,32.64 L 72.03,32.50 L 72.42,31.77 L 72.74,31.00 L 72.92,30.52 L 73.15,29.83 M 80.24,38.81 L 80.34,39.21 L 80.27,38.95 L 80.06,38.46 M 154.00,31.29 L 153.99,33.56 L 153.98,34.63 L 153.95,36.39 L 153.93,37.21 L 153.86,38.51 L 153.82,39.11 L 153.82,39.17 L 153.82,39.04 L 153.84,37.93 L 153.86,35.49 L 153.85,34.05 L 153.82,31.04 L 153.78,29.40 L 153.51,17.92 L 154.00,17.87 M 164.31,37.17 L 164.70,37.32 L 165.78,37.55 L 167.83,37.81 L 168.49,37.86 L 169.60,38.03 L 170.12,38.12 L 170.91,38.38 L 171.27,38.52 L 171.72,38.86 L 171.84,39.11 L 171.26,38.58 L 170.59,38.36 L 169.06,38.00 L 168.04,38.00 L 166.06,37.89 L 165.04,37.70 L 164.64,37.53 L 163.92,37.13 L 163.70,36.90 M 26.90,36.57 L 27.40,37.36 L 28.24,38.54 L 28.54,38.86 L 28.24,38.59 L 26.89,36.74 L 26.57,36.12 L 26.24,35.53 M 19.29,38.18 L 19.32,38.00 L 19.64,37.11 M 148.25,36.45 L 148.24,36.63 L 148.26,36.10 L 148.46,34.59 M 39.78,26.47 L 39.54,26.63 L 38.93,26.88 L 38.38,26.94 L 37.11,27.00 L 36.17,27.00 L 34.21,27.11 L 33.14,27.30 L 32.70,27.47 L 31.89,27.84 L 31.55,28.11 L 30.93,28.69 L 30.66,29.07 L 29.58,30.28 L 28.75,30.90 L 28.24,31.13 L 27.17,31.52 L 26.52,31.65 L 25.13,31.87 L 24.29,31.92 L 22.98,32.38 L 22.14,33.01 L 21.74,33.45 L 20.98,34.42 L 20.64,34.98 L 20.00,36.16 L 19.81,36.61 L 20.02,36.04 L 21.49,33.42 L 22.32,32.34 L 24.19,30.59 L 25.16,29.79 L 27.35,28.59 L 28.48,28.05 L 30.99,27.39 L 35.15,27.00 L 35.86,27.00 L 37.10,26.92 L 37.69,26.87 L 38.64,26.69 L 39.07,26.60 L 39.64,26.35 L 39.88,26.06 M 168.00,29.90 L 168.00,30.40 L 168.24,31.03 L 168.61,31.48 L 168.88,31.70 L 170.17,32.56 L 171.00,32.85 L 173.12,33.45 L 173.58,33.52 L 173.43,34.11 L 173.35,34.24 L 172.82,34.46 L 172.50,34.56 L 171.57,34.74 L 167.86,35.00 L 167.08,35.00 L 165.80,35.10 L 165.22,35.17 L 164.33,35.37 L 163.94,35.49 L 163.45,35.77 L 163.25,35.91 L 163.15,36.23 L 163.15,36.25 L 163.10,36.19 L 162.87,35.75 L 162.09,34.01 L 161.86,33.14 L 161.93,33.00 L 162.39,32.13 L 162.88,31.23 L 163.13,30.75 L 163.29,30.59 L 163.31,31.13 L 164.12,32.10 L 164.58,32.39 L 165.42,32.65 L 165.83,32.73 L 166.52,32.58 L 166.84,32.46 L 167.34,31.91 L 167.56,31.59 L 167.82,30.67 L 167.93,30.11 L 167.63,29.54 M 25.20,33.95 L 25.21,33.96 L 24.98,33.96 L 24.83,34.00 L 24.49,34.28 L 24.14,34.61 L 23.40,35.83 L 23.40,35.83 L 24.14,34.59 L 24.47,34.26 L 24.80,33.98 L 24.94,33.94 M 88.85,30.18 L 88.73,31.17 L 88.60,33.22 L 88.72,34.17 L 88.71,34.13 L 88.59,33.19 L 88.51,31.78 L 88.51,31.12 L 88.70,30.09 L 88.84,29.60 L 89.36,28.74 M 157.16,33.48 L 157.17,33.06 L 157.26,32.75 M 203.24,30.28 L 203.41,30.89 L 203.57,32.20 L 203.62,32.87 L 203.58,33.46 L 203.60,33.16 L 203.55,32.50 L 203.11,29.91 M 114.34,25.28 L 114.86,25.82 L 114.49,25.58 L 114.10,25.60 L 113.86,25.71 L 112.78,26.39 L 112.13,27.09 L 111.24,28.36 L 110.76,29.39 L 110.58,29.96 L 110.31,31.10 L 110.35,30.43 L 110.43,29.21 L 110.47,28.64 L 110.58,27.74 L 110.64,27.32 L 110.79,26.69 L 110.96,26.12 L 111.51,25.56 L 112.75,25.18 L 113.37,25.09 M 157.98,30.47 L 158.05,30.28 L 158.51,29.58 M 202.55,28.56 L 202.84,29.09 L 203.10,29.88 L 202.62,28.78 L 202.32,28.17 M 51.66,27.72 L 51.27,29.27 L 51.13,29.62 L 51.75,27.29 M 181.19,16.39 L 181.31,16.54 L 181.50,17.03 L 181.58,17.31 L 181.72,18.11 L 181.78,18.55 L 181.86,19.74 L 181.90,20.38 L 181.95,22.02 L 181.97,22.91 L 181.99,25.08 L 182.00,29.00 L 182.00,29.03 L 181.99,25.28 L 181.97,23.18 L 181.95,22.32 L 181.90,20.72 L 181.86,20.08 L 181.79,18.91 L 181.73,18.47 L 181.61,17.68 L 181.54,17.40 L 181.38,16.93 L 181.27,16.80 L 180.82,16.52 L 180.49,16.64 L 179.26,17.83 L 178.58,19.13 L 178.43,19.86 L 177.77,22.23 L 177.20,23.76 L 176.94,24.24 L 176.50,25.62 L 176.28,26.91 L 176.20,27.69 L 176.08,29.59 L 176.10,28.38 L 176.12,26.99 L 176.24,24.29 L 176.32,22.99 L 176.53,20.69 L 176.64,19.62 L 176.94,18.03 L 177.01,17.69 L 177.19,17.19 L 177.46,16.77 L 177.75,16.56 L 178.71,16.24 L 180.25,16.02 L 180.64,16.01 M 170.45,26.24 L 171.46,27.49 L 171.95,28.19 L 172.62,29.58 L 172.30,29.01 L 171.35,27.42 L 170.90,26.85 L 170.47,26.33 L 170.29,26.16 L 170.26,26.14 M 67.97,29.57 L 68.13,29.12 L 68.45,28.26 M 167.03,29.09 L 167.40,29.32 L 167.47,29.39 L 166.34,29.06 M 76.31,25.03 L 76.49,25.94 L 77.00,28.15 L 77.27,29.10 L 77.04,28.54 L 76.41,26.89 L 76.28,26.53 L 76.10,25.98 L 75.99,25.50 L 76.00,25.01 L 75.99,24.24 L 75.97,23.96 M 150.77,20.49 L 148.84,23.27 L 148.51,24.13 L 148.45,24.54 L 148.39,25.34 L 148.45,25.72 L 148.53,26.84 L 148.42,27.42 L 148.26,27.64 L 147.88,28.05 L 147.58,28.20 L 146.90,28.49 L 146.43,28.61 L 143.98,28.85 L 142.19,28.76 L 141.50,28.59 L 140.18,28.11 L 139.60,27.67 L 139.42,27.31 L 139.35,27.09 L 143.67,26.80 L 148.35,26.50 L 148.42,22.50 L 148.44,21.60 L 148.55,20.35 L 148.62,19.80 L 148.93,19.10 L 149.13,18.80 L 149.77,18.47 L 151.25,18.18 L 153.10,17.97 M 169.67,25.89 L 166.66,26.09 L 165.86,26.37 L 165.55,26.57 L 165.00,27.01 L 164.83,27.29 L 163.96,27.83 L 163.20,27.58 L 162.68,27.15 L 161.85,26.64 L 161.35,26.57 L 161.24,26.61 L 161.27,26.59 L 162.07,26.02 L 163.91,25.31 L 164.85,25.03 L 166.87,25.02 M 120.10,25.15 L 120.42,25.26 L 120.79,25.90 L 121.00,27.50 L 120.74,25.94 L 120.30,25.29 L 119.97,25.16 L 119.36,25.05 L 119.37,25.05 M 75.17,23.76 L 75.05,24.03 L 74.75,24.81 L 74.59,25.23 L 74.22,26.33 L 73.96,27.17 L 73.97,27.15 L 74.40,25.63 L 74.66,24.82 L 74.78,24.52 L 75.23,23.55 L 75.30,23.52 M 99.52,25.85 L 102.75,26.00 L 106.00,25.94 L 102.71,26.16 L 100.08,26.13 L 99.34,26.03 L 99.04,25.97 L 98.52,25.82 L 98.38,25.73 L 98.34,25.72 M 115.00,25.97 L 115.00,26.00 L 114.94,25.90 M 193.76,25.65 L 193.66,25.67 L 193.81,25.52 L 194.09,25.44 M 47.84,17.34 L 46.46,18.30 L 45.72,19.08 L 43.79,20.59 L 42.26,21.40 L 41.62,21.56 L 40.52,21.95 L 40.02,22.29 L 39.88,22.52 L 39.66,23.02 L 39.65,23.36 L 39.68,24.09 L 39.77,24.57 L 39.89,25.66 L 39.61,25.47 L 39.35,25.35 L 38.45,25.19 L 37.94,25.13 L 36.57,25.09 L 34.01,25.16 L 33.15,25.21 L 31.67,25.23 L 30.98,25.22 L 29.85,25.13 L 29.33,25.06 L 28.55,24.86 L 28.19,24.74 L 27.75,24.43 L 27.57,24.26 L 27.47,23.83 L 27.46,23.60 L 27.69,23.07 L 27.85,22.78 L 28.43,22.14 L 29.68,21.04 L 30.16,20.66 L 31.19,20.08 L 31.73,19.82 L 32.97,19.45 L 33.62,19.29 L 35.18,19.11 L 38.01,19.00 L 39.59,19.00 L 43.12,18.56 L 43.96,18.43 L 45.49,18.09 L 47.32,17.51 L 47.87,17.28 L 48.06,17.21 M 52.28,24.62 L 52.15,25.27 L 52.26,24.30 L 52.29,23.98 M 138.93,20.89 L 139.00,23.05 L 139.00,23.48 L 138.93,21.06 L 138.78,20.03 M 138.60,19.67 L 138.77,19.95 L 138.78,20.01 L 138.61,19.71 L 138.33,19.37 M 50.85,16.74 L 51.10,16.81 L 51.49,17.15 L 51.67,17.35 L 51.92,17.96 L 52.04,18.30 L 52.18,19.20 L 52.24,19.70 L 52.25,19.92 L 52.12,19.43 L 51.15,17.52 L 50.24,16.85 L 49.68,16.82 L 48.93,16.91 L 49.23,16.81 L 49.96,16.68 L 50.30,16.65 M 138.19,19.22 L 138.20,19.22 L 138.01,19.17 M 137.86,19.12 L 137.87,19.12 L 137.71,19.10 M 86.52,40.36 L 86.40,40.03 L 85.84,38.47 L 85.46,37.39 L 84.64,35.06 L 84.16,33.70 L 83.17,30.86 L 82.64,29.33 L 81.51,26.14 L 80.86,24.36 L 80.57,23.63 L 80.03,22.26 L 79.79,21.71 L 79.34,20.71 L 79.13,20.33 L 78.73,19.65 L 78.55,19.41 L 78.18,19.00 L 78.01,18.89 L 77.30,18.63 L 76.90,18.74 L 75.75,19.37 L 75.46,19.94 L 75.63,20.21 L 75.70,20.51 L 75.57,20.59 L 75.44,20.57 L 74.70,20.37 L 74.11,20.06 L 72.73,19.43 L 72.37,19.46 L 72.19,19.59 L 71.83,19.94 L 71.63,20.27 L 71.58,20.37 L 71.65,20.22 L 72.12,19.43 L 72.35,19.08 L 72.81,18.61 L 73.04,18.41 L 73.54,18.19 L 75.46,18.00 L 76.26,18.00 L 77.39,18.18 L 77.64,18.27 L 78.11,18.60 L 78.33,18.80 L 78.78,19.42 L 79.00,19.77 L 79.48,20.76 L 79.73,21.31 L 80.29,22.75 L 80.59,23.54 L 81.30,25.52 L 82.59,29.21 L 83.13,30.75 L 84.14,33.62 L 84.62,35.00 L 85.45,37.36 L 85.83,38.45 L 86.40,40.02 L 86.51,40.35 L 86.69,40.82 L 86.83,41.21 L 86.69,40.82 Z" fill="rgba(19,126,59,1)"/>
<path d="M 90.25,49.26 L 89.90,49.14 L 89.42,48.60 L 89.21,48.30 L 89.04,47.55 L 88.99,47.17 L 89.15,46.45 L 89.80,45.62 L 90.02,45.49 L 90.67,45.48 L 91.66,45.82 L 92.02,46.05 L 92.27,46.82 L 92.33,47.23 L 92.09,48.09 L 91.92,48.50 L 91.34,49.08 L 91.02,49.31 M 186.43,38.00 L 186.50,25.90 L 189.51,26.15 L 190.34,26.22 L 192.01,26.11 L 193.76,25.65 L 194.22,25.36 L 194.73,25.25 L 194.92,25.26 L 194.91,25.72 L 194.83,26.02 L 194.29,27.03 L 192.90,29.14 L 192.52,29.68 L 191.96,30.68 L 191.71,31.18 L 191.41,32.15 L 191.36,35.30 L 191.43,35.74 L 191.52,36.98 L 191.55,37.64 L 191.55,39.18 L 191.21,44.00 L 191.06,45.13 L 190.77,46.78 L 190.61,47.52 L 190.24,48.50 L 190.03,48.93 L 189.50,49.42 L 188.43,49.80 L 187.92,49.87 L 187.26,49.72 L 187.11,49.63 L 186.89,49.27 L 186.79,49.06 L 186.65,48.39 L 186.58,48.01 L 186.50,46.94 L 186.46,46.35 L 186.43,44.81 L 186.41,43.97 L 186.41,41.87 L 186.41,40.74 M 99.16,43.93 L 99.57,43.38 L 100.14,42.47 L 100.38,42.04 L 100.64,41.39 L 100.73,41.09 L 100.69,40.67 L 100.28,40.28 L 100.07,40.21 L 99.77,39.82 L 99.64,39.59 L 99.50,38.86 L 99.45,38.45 L 99.47,37.36 L 99.69,35.28 L 99.80,34.42 L 99.91,33.05 L 99.94,32.42 L 99.85,31.46 L 99.78,31.01 L 99.50,30.35 L 98.82,29.60 L 98.40,29.29 L 97.82,28.34 L 97.57,27.84 L 97.36,26.83 L 97.30,26.36 L 97.52,25.74 L 97.60,25.63 L 97.86,25.56 L 98.38,25.73 L 98.52,25.82 L 99.04,25.97 L 99.34,26.03 L 100.08,26.13 L 102.71,26.16 L 106.00,25.94 L 105.96,34.22 L 105.96,35.43 L 105.89,37.53 L 105.85,38.53 L 105.69,40.23 L 105.60,41.03 L 105.34,42.36 L 105.19,42.99 L 104.79,44.00 L 104.57,44.47 L 104.03,45.20 L 103.74,45.54 L 103.02,46.03 L 102.64,46.25 L 101.74,46.55 L 100.16,46.83 L 96.83,47.15 L 99.16,43.93 M 19.64,43.31 L 19.34,43.00 L 19.00,42.13 L 18.87,41.66 L 18.85,40.54 L 18.90,39.37 L 19.74,36.79 L 20.00,36.16 L 20.64,34.98 L 20.98,34.42 L 21.74,33.45 L 22.14,33.01 L 22.98,32.38 L 24.29,31.92 L 25.13,31.87 L 26.52,31.65 L 27.17,31.52 L 28.24,31.13 L 28.75,30.90 L 29.58,30.28 L 30.66,29.07 L 30.93,28.69 L 31.55,28.11 L 31.89,27.84 L 32.70,27.47 L 33.14,27.30 L 34.21,27.11 L 36.17,27.00 L 37.11,27.00 L 38.38,26.94 L 38.93,26.88 L 39.54,26.63 L 39.78,26.47 L 39.92,25.90 L 39.77,24.57 L 39.68,24.09 L 39.65,23.36 L 39.66,23.02 L 39.88,22.52 L 40.02,22.29 L 40.52,21.95 L 41.62,21.56 L 42.26,21.40 L 43.79,20.59 L 45.72,19.08 L 46.46,18.30 L 47.84,17.34 L 48.50,16.96 L 49.68,16.82 L 50.24,16.85 L 51.15,17.52 L 52.12,19.43 L 52.29,20.07 L 52.40,21.64 L 52.42,22.47 L 52.26,24.30 L 52.05,26.17 L 51.04,29.96 L 50.75,30.85 L 50.11,32.45 L 49.78,33.20 L 49.08,34.37 L 48.73,34.89 L 48.03,35.48 L 47.03,35.52 L 46.91,35.45 L 46.41,35.48 L 46.12,35.52 L 45.35,35.76 L 42.53,37.11 L 41.87,37.51 L 40.64,38.08 L 40.03,38.34 L 38.86,38.65 L 38.26,38.78 L 37.04,38.86 L 35.05,38.73 L 33.98,38.59 L 32.03,38.66 L 31.59,38.70 L 30.88,38.87 L 30.19,39.21 L 30.02,39.38 L 29.64,39.47 L 29.44,39.48 L 28.99,39.25 L 28.76,39.09 L 28.24,38.54 L 27.40,37.36 L 26.90,36.57 L 26.04,35.21 L 25.85,34.92 L 25.56,34.46 L 25.29,34.07 L 25.20,33.95 L 24.94,33.94 L 24.80,33.98 L 24.47,34.26 L 24.14,34.59 L 23.40,35.83 L 23.04,36.51 L 22.45,38.06 L 22.03,40.19 L 22.02,40.87 L 21.81,41.99 L 21.67,42.50 L 21.26,43.21 L 21.04,43.50 L 20.50,43.70 L 20.22,43.72 M 80.41,39.50 L 80.24,38.81 L 79.68,37.73 L 78.82,37.00 L 78.56,37.00 L 78.22,36.34 L 78.11,34.75 L 78.19,34.13 L 78.08,32.52 L 77.64,30.33 L 77.44,29.73 L 77.00,28.15 L 76.49,25.94 L 76.31,25.03 L 75.97,23.95 L 75.80,23.53 L 75.42,23.46 L 75.23,23.55 L 74.78,24.52 L 74.66,24.82 L 74.40,25.63 L 73.97,27.15 L 73.65,28.35 L 72.92,30.52 L 72.74,31.00 L 72.42,31.77 L 72.03,32.50 L 71.93,32.64 L 71.68,33.18 L 71.55,33.49 L 71.29,34.31 L 70.59,37.25 L 70.40,38.26 L 69.95,39.63 L 69.71,40.22 L 69.09,40.78 L 68.76,40.96 L 67.93,40.72 L 66.38,39.52 L 66.05,39.19 L 65.67,38.52 L 65.53,38.15 L 65.56,37.14 L 65.63,36.57 L 66.10,34.90 L 66.25,34.42 L 66.64,33.29 L 67.36,31.27 L 67.95,29.63 L 68.92,26.97 L 69.37,25.73 L 70.09,23.80 L 70.43,22.92 L 70.97,21.62 L 71.22,21.04 L 71.63,20.27 L 71.83,19.94 L 72.19,19.59 L 72.37,19.46 L 72.73,19.43 L 74.11,20.06 L 74.70,20.37 L 75.44,20.57 L 75.57,20.59 L 75.70,20.51 L 75.63,20.21 L 75.46,19.94 L 75.75,19.37 L 76.90,18.74 L 77.30,18.63 L 78.01,18.89 L 78.18,19.00 L 78.55,19.41 L 78.73,19.65 L 79.13,20.33 L 79.34,20.71 L 79.79,21.71 L 80.03,22.26 L 80.57,23.63 L 80.86,24.36 L 81.51,26.14 L 82.64,29.33 L 83.17,30.86 L 84.16,33.70 L 84.64,35.06 L 85.46,37.39 L 85.84,38.47 L 86.40,40.03 L 86.52,40.36 L 86.69,40.82 L 86.83,41.21 L 86.88,41.32 L 86.72,41.52 L 86.61,41.61 L 86.17,41.77 L 84.10,42.00 L 83.49,42.00 L 82.57,41.89 L 82.15,41.81 L 81.53,41.49 L 81.25,41.31 L 80.86,40.73 L 80.68,40.40 M 111.65,40.17 L 111.35,39.83 L 110.86,38.94 L 110.63,38.47 L 110.31,37.38 L 110.03,36.25 L 109.96,33.68 L 110.01,32.40 L 110.58,29.96 L 110.76,29.39 L 111.24,28.36 L 112.13,27.09 L 112.78,26.39 L 113.86,25.71 L 114.10,25.60 L 114.49,25.58 L 114.91,25.85 L 115.11,26.18 L 115.77,26.38 L 117.03,25.96 L 117.66,25.56 L 118.72,25.16 L 119.21,25.03 L 119.97,25.16 L 120.30,25.29 L 120.74,25.94 L 121.00,27.50 L 121.00,27.94 L 120.90,28.62 L 120.82,28.94 L 120.57,29.40 L 120.42,29.61 L 120.01,29.85 L 119.20,30.00 L 118.46,30.00 L 117.29,30.41 L 116.76,30.69 L 115.99,31.70 L 115.65,32.28 L 115.24,33.93 L 115.00,37.20 L 115.00,37.85 L 114.96,38.93 L 114.94,39.44 L 114.84,40.25 L 114.79,40.62 L 114.63,41.17 L 114.54,41.41 L 114.30,41.70 L 114.04,41.93 L 113.27,41.64 L 112.84,41.38 M 124.00,34.07 L 124.00,33.07 L 124.01,31.43 L 124.01,30.67 L 124.04,29.44 L 124.06,28.88 L 124.14,28.01 L 124.19,27.62 L 124.33,27.04 L 124.49,26.53 L 125.08,26.14 L 126.54,26.00 L 127.17,26.00 L 128.00,26.13 L 128.35,26.25 L 128.72,26.98 L 128.80,27.23 L 128.87,27.91 L 128.91,28.29 L 128.92,29.29 L 128.92,29.83 L 128.88,31.20 L 128.79,33.75 L 128.76,34.65 L 128.69,36.14 L 128.66,36.85 L 128.57,38.00 L 128.53,38.53 L 128.42,39.38 L 128.36,39.77 L 128.20,40.36 L 128.03,40.91 L 127.49,41.44 L 126.25,41.82 L 125.71,41.90 L 124.98,41.84 L 124.67,41.73 L 124.31,40.98 L 124.24,40.73 L 124.14,40.03 L 124.10,39.64 L 124.05,38.61 L 124.03,38.05 L 124.01,36.65 L 124.00,35.90 M 133.81,30.54 L 133.85,29.11 L 133.92,26.75 L 133.95,25.65 L 134.03,23.89 L 134.07,23.08 L 134.18,21.84 L 134.24,21.28 L 134.39,20.46 L 134.48,20.10 L 134.71,19.62 L 134.83,19.42 L 135.15,19.19 L 136.56,19.00 L 137.12,19.00 L 137.88,19.13 L 138.21,19.23 L 138.61,19.71 L 138.78,20.01 L 138.93,21.06 L 139.00,23.48 L 139.00,24.47 L 139.08,25.87 L 139.14,26.49 L 139.42,27.31 L 139.60,27.67 L 140.18,28.11 L 141.50,28.59 L 142.19,28.76 L 143.98,28.85 L 146.43,28.61 L 146.90,28.49 L 147.58,28.20 L 147.88,28.05 L 148.26,27.64 L 148.42,27.42 L 148.53,26.84 L 148.45,25.72 L 148.39,25.34 L 148.45,24.54 L 148.51,24.13 L 148.84,23.27 L 150.77,20.49 L 153.50,17.54 L 153.78,29.40 L 153.82,31.04 L 153.85,34.05 L 153.86,35.49 L 153.84,37.93 L 153.82,39.04 L 153.75,40.63 L 153.72,40.96 L 153.67,41.41 L 153.58,41.75 L 153.45,41.89 L 152.45,41.90 L 150.42,41.57 L 149.80,41.41 L 148.96,41.09 L 148.61,40.91 L 148.22,40.34 L 148.08,40.00 L 148.04,38.92 L 148.25,36.45 L 148.75,32.00 L 143.93,32.00 L 139.11,32.00 L 138.80,36.75 L 138.74,37.81 L 138.56,39.28 L 138.46,39.93 L 138.13,40.76 L 137.94,41.11 L 137.34,41.49 L 136.00,41.79 L 133.50,42.09 L 133.81,30.54 M 166.66,40.87 L 166.16,40.58 L 164.64,40.25 L 162.38,40.27 L 161.75,40.39 L 160.64,40.24 L 160.11,40.12 L 159.21,39.54 L 158.79,39.21 L 158.12,38.30 L 157.82,37.81 L 157.41,36.64 L 157.24,36.04 L 157.12,34.71 L 157.09,34.03 L 157.27,32.64 L 157.41,31.94 L 157.92,30.55 L 159.10,28.60 L 159.53,28.05 L 160.22,27.31 L 160.54,26.99 L 161.08,26.68 L 161.35,26.57 L 161.85,26.64 L 162.68,27.15 L 163.20,27.58 L 163.96,27.83 L 164.83,27.29 L 165.00,27.01 L 165.55,26.57 L 165.86,26.37 L 166.66,26.09 L 169.80,25.88 L 169.93,25.89 L 170.29,26.16 L 170.47,26.33 L 170.90,26.85 L 171.35,27.42 L 172.30,29.01 L 172.76,29.83 L 173.49,31.49 L 174.00,33.42 L 174.00,33.48 L 173.76,33.52 L 173.61,33.52 L 173.12,33.45 L 171.00,32.85 L 170.17,32.56 L 168.88,31.70 L 168.61,31.48 L 168.24,31.03 L 168.00,30.40 L 168.00,29.90 L 167.40,29.32 L 167.03,29.09 L 165.99,29.04 L 165.45,29.08 L 164.36,29.53 L 163.13,30.75 L 162.88,31.23 L 162.39,32.13 L 161.93,33.00 L 161.86,33.14 L 162.09,34.01 L 162.87,35.75 L 163.10,36.19 L 163.64,36.84 L 163.92,37.13 L 164.64,37.53 L 165.04,37.70 L 166.06,37.89 L 168.04,38.00 L 169.06,38.00 L 170.59,38.36 L 171.26,38.58 L 171.97,39.23 L 172.22,39.58 L 171.98,40.34 L 171.86,40.53 L 171.41,40.89 L 170.42,41.39 L 169.94,41.57 L 169.35,41.80 L 169.08,41.89 L 168.67,41.89 L 168.46,41.86 L 167.93,41.60 L 167.62,41.44 M 177.20,40.80 L 177.02,40.62 L 176.72,39.78 L 176.58,39.29 L 176.36,37.96 L 176.26,37.25 L 176.13,35.60 L 176.07,34.74 L 176.02,32.93 L 175.99,31.11 L 176.20,27.69 L 176.28,26.91 L 176.50,25.62 L 176.94,24.24 L 177.20,23.76 L 177.77,22.23 L 178.43,19.86 L 178.58,19.13 L 179.26,17.83 L 180.49,16.64 L 180.82,16.52 L 181.27,16.80 L 181.38,16.93 L 181.54,17.40 L 181.61,17.68 L 181.73,18.47 L 181.79,18.91 L 181.86,20.08 L 181.90,20.72 L 181.95,22.32 L 181.97,23.18 L 181.99,25.28 L 182.00,29.03 L 182.00,30.51 L 181.99,32.98 L 181.98,34.15 L 181.95,36.04 L 181.93,36.93 L 181.86,38.33 L 181.82,38.97 L 181.72,39.95 L 181.65,40.39 L 181.49,41.01 L 181.40,41.29 L 181.17,41.64 L 180.20,42.00 L 179.70,42.00 L 178.58,41.65 L 178.03,41.43 M 90.24,39.73 L 90.11,39.56 L 89.82,38.92 L 89.68,38.56 L 89.40,37.63 L 88.74,34.32 L 88.60,33.22 L 88.73,31.17 L 88.85,30.18 L 89.44,28.51 L 89.78,27.75 L 90.72,26.68 L 92.44,26.00 L 92.88,26.00 L 93.56,26.55 L 93.86,26.89 L 94.22,27.91 L 94.35,28.46 L 94.32,29.69 L 93.76,31.47 L 93.43,32.05 L 93.30,33.39 L 93.89,35.66 L 94.25,36.44 L 94.68,37.48 L 94.85,37.94 L 94.87,38.53 L 94.82,38.80 L 94.37,39.21 L 93.11,39.94 L 92.43,40.31 L 91.43,40.44 L 90.96,40.40 M 199.40,38.23 L 199.25,38.13 L 198.92,37.50 L 198.76,37.13 L 198.44,36.06 L 197.66,31.86 L 197.53,30.76 L 197.41,29.11 L 197.37,28.35 L 197.44,27.28 L 197.50,26.81 L 197.76,26.20 L 198.41,25.67 L 198.82,25.52 L 199.61,25.58 L 200.01,25.67 L 200.76,26.16 L 201.12,26.44 L 201.78,27.27 L 202.09,27.71 L 202.62,28.78 L 203.11,29.90 L 203.55,32.50 L 203.60,33.16 L 203.52,34.45 L 203.08,36.29 L 202.81,36.99 L 202.32,37.95 L 202.07,38.37 L 201.54,38.78 L 201.27,38.93 L 200.62,38.85 L 200.27,38.76 M 123.36,19.50 L 123.19,19.05 L 123.22,18.04 L 123.76,16.84 L 124.17,16.43 L 125.19,16.10 L 125.71,16.01 L 126.74,16.24 L 127.23,16.41 L 127.99,17.09 L 128.50,18.51 L 128.50,19.15 L 127.83,20.07 L 127.41,20.47 L 126.27,20.85 L 125.69,20.96 L 124.55,20.71 L 124.02,20.49 Z" fill="rgba(22,128,62,1)"/>
</g>
</svg>